<?xml version="1.0" standalone="no"?>
<!DOCTYPE svg PUBLIC "-//W3C//DTD SVG 20010904//EN"
 "http://www.w3.org/TR/2001/REC-SVG-20010904/DTD/svg10.dtd">
<svg version="1.0" xmlns="http://www.w3.org/2000/svg"
 width="462.000000pt" height="452.000000pt" viewBox="0 0 462.000000 452.000000"
 preserveAspectRatio="xMidYMid meet">

<g transform="translate(0.000000,452.000000) scale(0.100000,-0.100000)"
fill="#000000" stroke="none">
<path d="M1983 4460 c-326 -50 -625 -164 -898 -344 -66 -44 -122 -82 -125 -85
-3 -4 -41 -36 -86 -73 -158 -131 -360 -366 -468 -545 -108 -180 -224 -468
-266 -660 -67 -307 -67 -679 0 -985 46 -212 158 -482 283 -685 257 -415 687
-762 1136 -917 716 -248 1481 -132 2079 316 110 83 322 289 404 393 267 342
419 709 469 1138 17 150 7 494 -20 637 -89 476 -303 876 -642 1205 -346 335
-753 535 -1234 606 -173 25 -460 25 -632 -1z m715 -738 c2 -10 -15 -131 -38
-268 -35 -215 -85 -527 -147 -926 -9 -59 -14 -110 -11 -113 3 -4 274 129 601
295 532 268 597 299 605 283 14 -26 224 -674 220 -678 -3 -3 -150 -29 -1038
-181 -151 -26 -277 -49 -280 -51 -2 -2 209 -217 469 -477 l474 -474 -74 -54
c-40 -29 -172 -126 -293 -215 -120 -89 -223 -160 -228 -157 -5 3 -41 69 -80
147 -38 78 -116 230 -173 337 -56 107 -141 269 -188 360 -138 267 -173 332
-183 332 -5 1 -56 -91 -114 -203 -505 -975 -508 -981 -523 -972 -15 9 -115 82
-312 228 -82 61 -176 131 -209 154 l-58 43 473 474 c260 260 471 475 469 477
-3 2 -79 16 -170 31 -91 16 -248 43 -350 61 -102 18 -322 57 -490 85 -167 28
-306 53 -308 55 -2 2 48 160 111 350 l115 347 597 -302 c328 -165 600 -299
603 -295 3 3 0 40 -7 83 -91 574 -191 1229 -187 1237 2 7 126 9 362 8 346 -1
359 -2 362 -21z"/>
</g>
</svg>
